<?xml version="1.0" encoding="utf-8"?>
<!-- Generator: Adobe Illustrator 15.1.0, SVG Export Plug-In . SVG Version: 6.00 Build 0)  -->
<!DOCTYPE svg PUBLIC "-//W3C//DTD SVG 1.1//EN" "http://www.w3.org/Graphics/SVG/1.1/DTD/svg11.dtd">
<svg version="1.1" id="Layer_1" xmlns="http://www.w3.org/2000/svg" xmlns:xlink="http://www.w3.org/1999/xlink" x="0px" y="0px"
	 width="150px" height="150px" viewBox="0 0 150 150" enable-background="new 0 0 150 150" xml:space="preserve">
<g>
	<g>
		<g>
			<path fill="#58595B" d="M45.479,86.961c-0.497-3.486-2.159-23.629-2.844-28.428c-0.417-2.921-0.711-5.515-2.622-7.814
				c-5.432-6.61-7.746,15.91-9.127,15.755c-0.869-0.033-1.334-3.769-1.458-4.426c-0.327-1.563-0.979-6.516-4.984-5.658
				c-2.094,0.455-3.321,3.721-3.321,3.721s-0.325-1.232-1.056-1.109c-1.645-0.266-2.25-0.547-2.281,1.408
				c-0.031,2.749-0.869,34.021,0.478,37.037c0.546,1.251,2.534,3.188,3.559,1.171c0.635-1.235,0.404-3.08,0.325-4.405
				c-0.219-4.156-0.076-8.316-0.156-12.457c-0.106-5.422,0.359-10.377,1.508-15.644c0.202-0.937,0.791-4.109,2.064-4.109
				c0.825-0.016,0.98,2.281,1.073,2.876c1.534,9.83,1.458,19.564,1.254,29.583c-0.03,1.953,0.994,4.267,2.936,3.799
				c1.117-0.267,2.217-1.597,1.473-2.877c-0.853-1.469,2.625-40.787,5.494-40.038c3.198,0.829,2.936,25.052,3.247,30.488
				c0.094,1.768-0.466,10.302,2.792,9.863C47.339,95.226,45.726,89.179,45.479,86.961z M47.944,98.147
				c-2.59-1.014-5.447,1.111-3.769,4.19c0.776,1.421,2.701,1.108,3.305-0.235c0.372-0.845,0.776-1.702,0.963-2.641
				C48.552,98.854,48.708,98.602,47.944,98.147z M98.425,57.909c0.062-1.345-2.219-1.688-3.293-0.735
				c-1.224,1.08,0.561,22.817,0.809,25.599c0.232,2.562-2.934-0.315-4.175-1.813c-5.37-6.519-5.076-13.797-6.52-14.829
				c-4.128-2.986-2.887,3.796-2.576,6.437c0.31,2.688,2.576,8.798,0.062,10.626c-1.447,0.719-2.297-16.03-2.407-17.58
				c-0.063-0.905,0.109-2.28-0.325-3.093c-0.219-0.393-2.577-3.282-3.57-1.768c-0.082,0.126-1.786,3.046-2.267,4.75
				C68.341,48.75,54.589,41.155,53.146,40.154c-1.119-0.781-2.856-2.282-3.493,0.609c-0.917,4.095,6.365,3.829,18.161,19.6
				c1.364,1.796,2.686,5.092,2.575,7.484c-0.168,3.844-0.682,7.125-2.156,10.376c-0.65,1.406-4.795,8.312-5.681,9.048
				c-2.624,2.14-2.966-3.891-3.011-5.376c-0.079-2.611-0.483-12.407-0.359-14.485c0.172-3.22,0.437-7.487-0.31-10.611
				c-0.341-1.486-0.619-2.173-2.142-2.282c-1.04-0.077-1.957,0.782-2.064,1.798c-0.342,3.078,1.908,27.456,1.335,30.834
				c-0.359,2.108-2.235,2.921-2.731,5.109c-0.402,1.749-0.67,5.72,1.597,6.202c1.988,0.438,6.102-3.793,7.545-5.094
				c2.639-2.342,6.475-8.484,6.475-8.484s-0.599,9.059,2.9,8.454c2.816-0.485,4.333-3.078,5.371-5.859
				c0.515-1.312,1.384-4.517,1.384-4.517s-0.018,5.454,4.937,5.718c3.476,0.175,3.104-8.97,3.104-8.97s6.487,9.595,9.855,7.579
				C101.639,84.144,97.542,76.036,98.425,57.909z M73.029,86.036c-1.895-0.373,1.118-12.094,2.918-16.374
				C78.759,73.504,74.939,86.396,73.029,86.036z M100.038,60.939c0.031,3.844,2.575,26.506,3.693,28.678
				c1.025,2.015,3.371,0.86,3.339-0.206c0,0-3.244-28.454-4.269-30.426C102.149,57.706,100.008,57.471,100.038,60.939z
				 M129.973,71.836c-2.108-2.354-5.474-3.449-8.374-4.402c-3.083-1.011-6.245-1.843-9.434-2.432
				c-0.364-0.067-0.729-0.143-1.087-0.228c-0.517-0.139-1.022-0.306-1.504-0.539c-0.06-0.037-0.116-0.076-0.169-0.117
				c-0.004-0.006-0.004-0.011-0.005-0.017c0.005-0.045,0.01-0.091,0.017-0.135c0.039-0.111,0.083-0.222,0.132-0.327
				c0.17-0.265,0.361-0.509,0.57-0.747c0.677-0.658,1.445-1.216,2.243-1.721c1.498-0.897,3.086-1.661,4.747-2.193
				c1.202-0.339,2.427-0.549,3.67-0.608c0.912,0.002,1.809,0.09,2.698,0.283c0.662,0.188,1.3,0.439,1.915,0.758
				c0.368,0.223,0.721,0.466,1.062,0.734c0.789,0.625,1.989,0.409,2.575-0.382c0.612-0.83,0.406-1.971-0.382-2.596
				c-1.8-1.427-3.839-2.17-5.955-2.405c-3.977-0.439-8.223,0.915-11.659,2.917c-2.249,1.312-4.981,3.173-5.298,6.016
				c-0.368,3.332,3.051,4.394,5.617,4.912c0.767,0.157,1.549,0.251,2.31,0.431c4.021,1.01,8.229,2.011,11.903,3.991
				c0.518,0.308,1.011,0.649,1.46,1.052c0.206,0.22,0.396,0.452,0.564,0.701c0.114,0.217,0.212,0.438,0.295,0.666
				c0.074,0.315,0.119,0.63,0.144,0.95c-0.01,0.412-0.048,0.822-0.128,1.225c-0.109,0.369-0.253,0.724-0.426,1.066
				c-0.282,0.463-0.606,0.89-0.971,1.291c-0.614,0.605-1.297,1.132-2.023,1.596c-1.198,0.708-2.481,1.258-3.81,1.676
				c-1.453,0.419-2.952,0.673-4.464,0.735c-0.95,0.007-1.897-0.069-2.825-0.273c-0.476-0.135-0.939-0.306-1.38-0.53
				c-0.24-0.148-0.468-0.311-0.681-0.495c-0.134-0.148-0.257-0.302-0.371-0.466c-0.09-0.17-0.164-0.345-0.231-0.524
				c-0.057-0.254-0.096-0.513-0.114-0.769c0.012-0.381,0.054-0.757,0.129-1.128c0.101-0.337,0.228-0.663,0.382-0.978
				c0.205-0.33,0.436-0.64,0.69-0.933c0.359-0.344,0.747-0.65,1.159-0.924c0.604-0.341,1.237-0.617,1.894-0.833
				c0.814-0.22,1.645-0.352,2.483-0.397c0.6,0.005,1.19,0.054,1.777,0.173c0.286,0.085,0.563,0.192,0.832,0.322
				c0.046,0.026,0.09,0.058,0.136,0.088c-0.214,0.108-0.429,0.197-0.651,0.275c-0.551,0.142-1.108,0.227-1.672,0.277
				c-1.001,0.094-1.68,1.181-1.526,2.127c0.165,1.046,1.11,1.63,2.111,1.537c2.518-0.235,6.023-1.517,5.587-4.697
				c-0.382-2.785-3.832-3.774-6.169-3.792c-2.893-0.021-5.925,0.836-8.114,2.807c-2.016,1.809-3.166,4.673-2.584,7.385
				c0.852,3.988,5.019,5.434,8.648,5.438c4.189,0.003,8.499-1.262,11.889-3.771c1.544-1.142,2.887-2.683,3.581-4.496
				C132.151,76.896,131.789,73.861,129.973,71.836z"/>
		</g>
	</g>
	<path fill="#58595B" d="M75.113,98.345h-1.098v4.964h1.098c1.627,0,2.696-0.89,2.696-2.46v-0.03
		C77.811,99.263,76.74,98.345,75.113,98.345z M108.632,89.78c-0.141,0.285-0.33,0.559-0.567,0.802
		c-0.689,0.712-1.702,1.138-2.703,1.138c-1.339,0-2.487-0.707-3.181-1.938H77.771c-1.123,2.065-2.847,4.039-5.668,4.526
		c-0.214,0.036-0.43,0.055-0.642,0.055c-0.979,0-1.866-0.395-2.563-1.139c-0.716-0.765-1.222-1.904-1.533-3.442h-0.17
		c-1.15,1.547-2.429,3.118-3.544,4.108c-0.183,0.165-0.423,0.392-0.703,0.654c-0.624,0.587-1.242,1.157-1.854,1.694v14.699H132.5
		V89.78H108.632L108.632,89.78z M80.561,100.807c0,2.807-2.041,4.892-5.53,4.892h-3.712v-9.729h3.767
		c3.461,0,5.475,2.001,5.475,4.81V100.807z M89.592,105.698h-7.895v-9.729h7.825v2.279h-5.157v1.488h4.67v2.126h-4.67v1.543h5.227
		V105.698z M98.599,102.696c0,1.988-1.57,3.17-3.932,3.17c-1.725,0-3.352-0.542-4.562-1.613l1.502-1.793
		c0.974,0.766,2.028,1.168,3.155,1.168c0.737,0,1.128-0.251,1.128-0.667v-0.028c0-0.417-0.321-0.625-1.655-0.944
		c-2.073-0.474-3.67-1.058-3.67-3.045v-0.029c0-1.807,1.431-3.113,3.766-3.113c1.655,0,2.948,0.445,4.005,1.293l-1.348,1.904
		c-0.892-0.64-1.864-0.96-2.726-0.96c-0.652,0-0.973,0.265-0.973,0.626v0.028c0,0.444,0.333,0.639,1.694,0.946
		c2.226,0.483,3.614,1.209,3.614,3.029V102.696L98.599,102.696z M102.459,105.698h-2.697v-9.729h2.697V105.698z M113.122,104.379
		c-1.028,0.86-2.447,1.515-4.226,1.515c-3.031,0-5.283-2.085-5.283-5.033v-0.027c0-2.835,2.225-5.059,5.228-5.059
		c1.71,0,2.919,0.513,3.947,1.402l-1.584,1.918c-0.696-0.583-1.377-0.917-2.351-0.917c-1.404,0-2.487,1.168-2.487,2.655v0.027
		c0,1.586,1.099,2.712,2.641,2.712c0.667,0,1.167-0.139,1.557-0.403v-1.181h-1.904v-1.976h4.463V104.379L113.122,104.379z
		 M123.702,105.698h-2.35l-4.17-5.338v5.338h-2.668v-9.729h2.514l4.004,5.144v-5.144h2.67V105.698L123.702,105.698z"/>
</g>
</svg>
