<?xml version="1.0" encoding="utf-8"?>
<!-- Generator: Adobe Illustrator 15.1.0, SVG Export Plug-In . SVG Version: 6.00 Build 0)  -->
<!DOCTYPE svg PUBLIC "-//W3C//DTD SVG 1.1//EN" "http://www.w3.org/Graphics/SVG/1.1/DTD/svg11.dtd">
<svg version="1.1" id="Layer_1" xmlns="http://www.w3.org/2000/svg" xmlns:xlink="http://www.w3.org/1999/xlink" x="0px" y="0px"
	 width="200px" height="125px" viewBox="0 0 200 125" enable-background="new 0 0 200 125" xml:space="preserve">
<g>
	<g>
		<g>
			<path fill="#1A1A1A" d="M48.658,83.301c-0.864-6.062-3.754-41.094-4.945-49.44c-0.725-5.079-1.238-9.59-4.559-13.589
				c-9.448-11.496-13.471,27.669-15.873,27.4c-1.511-0.059-2.321-6.554-2.537-7.697c-0.569-2.719-1.702-11.333-8.669-9.84
				C8.433,30.926,6.3,36.606,6.3,36.606s-0.565-2.145-1.837-1.931c-2.861-0.461-3.913-0.951-3.966,2.449
				c-0.054,4.782-1.511,59.168,0.831,64.413c0.95,2.176,4.407,5.545,6.189,2.037c1.105-2.148,0.702-5.357,0.565-7.662
				C7.701,88.684,7.949,81.449,7.81,74.248c-0.184-9.43,0.624-18.047,2.622-27.206c0.351-1.629,1.375-7.148,3.59-7.148
				c1.435-0.026,1.704,3.968,1.865,5.002c2.668,17.096,2.535,34.026,2.181,51.45c-0.053,3.396,1.729,7.42,5.106,6.605
				c1.942-0.463,3.856-2.775,2.562-5.002c-1.483-2.555,4.565-70.936,9.554-69.632c5.562,1.442,5.106,43.568,5.647,53.023
				c0.163,3.074-0.811,17.916,4.856,17.154C51.894,97.676,49.089,87.158,48.658,83.301z M52.946,102.756
				c-4.505-1.762-9.473,1.934-6.555,7.289c1.35,2.471,4.697,1.928,5.747-0.41c0.647-1.469,1.35-2.961,1.675-4.592
				C54.003,103.986,54.275,103.547,52.946,102.756z M140.738,32.777c0.108-2.339-3.858-2.935-5.726-1.28
				c-2.128,1.879,0.975,39.683,1.406,44.521c0.404,4.455-5.102-0.549-7.26-3.154c-9.34-11.336-8.828-23.996-11.34-25.791
				c-7.178-5.192-5.018,6.603-4.478,11.195c0.538,4.673,4.478,15.3,0.107,18.48c-2.515,1.25-3.995-27.88-4.186-30.574
				c-0.111-1.575,0.19-3.967-0.566-5.38c-0.378-0.682-4.481-5.708-6.208-3.073c-0.143,0.219-3.107,5.296-3.942,8.261
				C88.42,16.847,64.503,3.638,61.994,1.898c-1.945-1.358-4.967-3.968-6.075,1.061c-1.594,7.12,11.069,6.659,31.584,34.086
				c2.372,3.123,4.671,8.856,4.478,13.016c-0.293,6.685-1.186,12.392-3.75,18.045c-1.132,2.447-8.341,14.457-9.88,15.736
				c-4.564,3.721-5.158-6.766-5.236-9.35c-0.137-4.541-0.84-21.578-0.625-25.192c0.299-5.599,0.759-13.021-0.539-18.454
				c-0.592-2.585-1.076-3.78-3.724-3.969c-1.808-0.135-3.403,1.36-3.59,3.126c-0.594,5.355,3.319,47.75,2.322,53.624
				c-0.625,3.668-3.887,5.08-4.75,8.887c-0.7,3.041-1.165,9.947,2.778,10.787c3.457,0.762,10.611-6.598,13.121-8.859
				c4.589-4.074,11.261-14.756,11.261-14.756s-1.041,15.754,5.044,14.703c4.897-0.844,7.535-5.354,9.34-10.191
				c0.895-2.283,2.407-7.854,2.407-7.854s-0.03,9.484,8.584,9.943c6.046,0.305,5.398-15.6,5.398-15.6s11.283,16.688,17.14,13.182
				C146.328,78.402,139.203,64.303,140.738,32.777z M96.572,81.693c-3.294-0.648,1.943-21.032,5.076-28.476
				C106.537,59.899,99.895,82.318,96.572,81.693z M143.544,38.047c0.055,6.686,4.48,46.097,6.425,49.875
				c1.783,3.504,5.862,1.496,5.806-0.359c0,0-5.643-49.486-7.423-52.914C147.216,32.423,143.491,32.014,143.544,38.047z
				 M195.606,56.998c-3.669-4.096-9.52-6-14.565-7.656c-5.362-1.759-10.862-3.206-16.406-4.23c-0.634-0.117-1.268-0.248-1.891-0.396
				c-0.899-0.242-1.778-0.53-2.614-0.936c-0.104-0.065-0.202-0.133-0.295-0.205c-0.007-0.01-0.007-0.019-0.008-0.029
				c0.008-0.078,0.017-0.157,0.029-0.233c0.068-0.195,0.144-0.386,0.229-0.57c0.295-0.46,0.629-0.886,0.992-1.299
				c1.177-1.145,2.514-2.115,3.902-2.994c2.604-1.559,5.367-2.888,8.256-3.813c2.089-0.589,4.219-0.956,6.381-1.059
				c1.586,0.003,3.146,0.157,4.692,0.493c1.152,0.328,2.263,0.765,3.331,1.317c0.641,0.388,1.253,0.811,1.847,1.278
				c1.371,1.087,3.46,0.712,4.478-0.664c1.066-1.443,0.707-3.428-0.663-4.514c-3.13-2.481-6.677-3.774-10.357-4.183
				c-6.917-0.764-14.301,1.592-20.277,5.073c-3.912,2.281-8.664,5.519-9.214,10.461c-0.641,5.796,5.306,7.641,9.769,8.543
				c1.332,0.274,2.693,0.436,4.017,0.75c6.992,1.755,14.312,3.496,20.7,6.94c0.901,0.536,1.759,1.13,2.54,1.83
				c0.359,0.381,0.688,0.786,0.982,1.219c0.198,0.377,0.369,0.762,0.513,1.158c0.13,0.549,0.208,1.096,0.248,1.652
				c-0.016,0.717-0.081,1.43-0.221,2.131c-0.191,0.641-0.441,1.258-0.741,1.855c-0.49,0.803-1.055,1.547-1.688,2.244
				c-1.068,1.053-2.256,1.969-3.519,2.777c-2.084,1.23-4.315,2.186-6.625,2.914c-2.528,0.727-5.135,1.17-7.763,1.279
				c-1.653,0.012-3.3-0.121-4.913-0.477c-0.828-0.234-1.634-0.531-2.401-0.922c-0.418-0.258-0.813-0.541-1.183-0.861
				c-0.233-0.258-0.448-0.525-0.646-0.811c-0.157-0.295-0.285-0.598-0.402-0.912c-0.098-0.441-0.167-0.891-0.198-1.336
				c0.019-0.662,0.091-1.316,0.223-1.961c0.176-0.586,0.396-1.154,0.664-1.701c0.357-0.574,0.757-1.111,1.201-1.621
				c0.625-0.598,1.298-1.131,2.016-1.607c1.05-0.592,2.151-1.072,3.293-1.449c1.417-0.381,2.86-0.611,4.32-0.691
				c1.043,0.008,2.07,0.094,3.089,0.301c0.498,0.148,0.982,0.334,1.448,0.559c0.081,0.047,0.156,0.102,0.237,0.154
				c-0.372,0.188-0.747,0.342-1.134,0.48c-0.957,0.246-1.927,0.393-2.908,0.482c-1.739,0.162-2.92,2.053-2.654,3.699
				c0.288,1.818,1.931,2.834,3.671,2.672c4.379-0.408,10.476-2.637,9.718-8.168c-0.664-4.845-6.664-6.564-10.729-6.596
				c-5.031-0.037-10.305,1.455-14.111,4.882c-3.506,3.146-5.506,8.126-4.495,12.843c1.482,6.936,8.729,9.449,15.042,9.459
				c7.284,0.004,14.781-2.195,20.675-6.561c2.685-1.984,5.02-4.664,6.229-7.818C199.394,65.799,198.763,60.52,195.606,56.998z"/>
		</g>
	</g>
	<radialGradient id="SVGID_1_" cx="137.9072" cy="106.6025" r="45.7929" gradientUnits="userSpaceOnUse">
		<stop  offset="0" style="stop-color:#7ECCA9"/>
		<stop  offset="1" style="stop-color:#19787E"/>
	</radialGradient>
	<path fill="url(#SVGID_1_)" d="M100.197,103.1h-1.909v8.633h1.909c2.829,0,4.69-1.547,4.69-4.279v-0.051
		C104.888,104.695,103.026,103.1,100.197,103.1z M158.49,88.205c-0.244,0.496-0.573,0.971-0.987,1.395
		c-1.199,1.238-2.959,1.977-4.701,1.977c-2.327,0-4.326-1.229-5.531-3.371h-42.451c-1.953,3.592-4.952,7.025-9.858,7.873
		c-0.373,0.062-0.748,0.094-1.116,0.094c-1.702,0-3.245-0.684-4.457-1.979c-1.246-1.33-2.125-3.312-2.666-5.988h-0.297
		c-2,2.691-4.225,5.424-6.164,7.145c-0.317,0.287-0.736,0.682-1.222,1.139c-1.085,1.02-2.16,2.012-3.225,2.945V125H200V88.205
		H158.49L158.49,88.205z M109.672,107.381c0,4.881-3.551,8.508-9.619,8.508h-6.456V98.967h6.552c6.02,0,9.523,3.48,9.523,8.365
		V107.381z M125.378,115.889h-13.732V98.967h13.611v3.965h-8.97v2.588h8.123v3.697h-8.123v2.684h9.091V115.889z M141.042,110.668
		c0,3.457-2.731,5.512-6.839,5.512c-2.998,0-5.828-0.941-7.932-2.805l2.612-3.119c1.692,1.332,3.527,2.031,5.487,2.031
		c1.283,0,1.961-0.436,1.961-1.16v-0.049c0-0.725-0.558-1.086-2.879-1.643c-3.604-0.822-6.382-1.838-6.382-5.295v-0.051
		c0-3.141,2.489-5.414,6.55-5.414c2.878,0,5.127,0.775,6.964,2.25l-2.344,3.312c-1.55-1.113-3.241-1.67-4.739-1.67
		c-1.136,0-1.693,0.461-1.693,1.088v0.049c0,0.773,0.581,1.111,2.948,1.646c3.87,0.842,6.285,2.102,6.285,5.268V110.668z
		 M147.755,115.889h-4.69V98.967h4.69V115.889z M166.299,113.594c-1.787,1.496-4.255,2.635-7.349,2.635
		c-5.271,0-9.188-3.627-9.188-8.754v-0.047c0-4.932,3.869-8.799,9.091-8.799c2.974,0,5.077,0.893,6.866,2.439l-2.755,3.336
		c-1.211-1.014-2.396-1.596-4.088-1.596c-2.442,0-4.326,2.033-4.326,4.619v0.047c0,2.758,1.911,4.717,4.592,4.717
		c1.161,0,2.03-0.242,2.708-0.701v-2.055h-3.312v-3.434h7.761V113.594z M184.7,115.889h-4.087l-7.252-9.283v9.283h-4.641V98.967
		h4.373l6.963,8.945v-8.945h4.644V115.889L184.7,115.889z"/>
</g>
</svg>
